<svg width="36" height="36" viewBox="0 0 36 36" fill="none" xmlns="http://www.w3.org/2000/svg">
<rect x="-0.507007" y="-0.491693" width="12.1034" height="11.9353" transform="matrix(-0.014151 -0.9999 -0.999864 0.0165136 12.2112 34.7126)" fill="#D70D1D" stroke="#101010"/>
<rect x="-0.507007" y="-0.491693" width="12.1034" height="11.9353" transform="matrix(-0.014151 -0.9999 -0.999864 0.0165136 18.6602 27.9763)" fill="#D70D1D" stroke="#FD2E32"/>
<path d="M13.5222 22.3371L13.694 34.4748L19.1575 28.7681L18.9876 16.7609L13.5222 22.3371Z" fill="#D70D1D" stroke="#FD2E32"/>
<path d="M2.55591 32.7029C1.88476 33.3978 1.24731 34.0689 0.764891 34.5991L0.764722 34.5872L0.764399 34.5644L0.764074 34.5414L0.763748 34.5184L0.763419 34.4951L0.763088 34.4717L0.762755 34.4482L0.76242 34.4246L0.762084 34.4008L0.761745 34.3768L0.761404 34.3527L0.761061 34.3285L0.760716 34.3041L0.760369 34.2796L0.76002 34.255L0.75967 34.2302L0.759317 34.2053L0.758963 34.1802L0.758606 34.1551L0.758248 34.1297L0.757888 34.1043L0.757526 34.0787L0.757162 34.053L0.756797 34.0272L0.756429 34.0012L0.75606 33.9751L0.755689 33.9489L0.755316 33.9226L0.754941 33.8961L0.754565 33.8695L0.754187 33.8428L0.753807 33.816L0.753426 33.789L0.753042 33.7619L0.752658 33.7347L0.752271 33.7074L0.751883 33.68L0.751493 33.6524L0.751101 33.6248L0.750708 33.597L0.750313 33.5691L0.749917 33.5411L0.749519 33.513L0.749119 33.4847L0.748718 33.4564L0.748316 33.4279L0.747912 33.3994L0.747506 33.3707L0.747099 33.3419L0.74669 33.3131L0.74628 33.2841L0.745868 33.255L0.745455 33.2258L0.74504 33.1965L0.744624 33.1671L0.744207 33.1376L0.743788 33.108L0.743368 33.0783L0.742946 33.0485L0.742523 33.0186L0.742099 32.9886L0.741673 32.9586L0.741246 32.9284L0.740817 32.8981L0.740388 32.8677L0.739957 32.8373L0.739524 32.8067L0.739091 32.7761L0.738656 32.7454L0.73822 32.7146L0.737782 32.6837L0.737344 32.6527L0.736904 32.6216L0.736463 32.5905L0.736021 32.5592L0.735578 32.5279L0.735133 32.4965L0.734688 32.465L0.734241 32.4334L0.733793 32.4018L0.733344 32.3701L0.732894 32.3382L0.732443 32.3064L0.73199 32.2744L0.731537 32.2424L0.731083 32.2103L0.730627 32.1781L0.730171 32.1459L0.729714 32.1135L0.729255 32.0811L0.728796 32.0487L0.728335 32.0161L0.727874 31.9835L0.727412 31.9509L0.726949 31.9182L0.726484 31.8854L0.726019 31.8525L0.725553 31.8196L0.725087 31.7866L0.724619 31.7535L0.72415 31.7204L0.723681 31.6873L0.723211 31.654L0.72274 31.6208L0.722268 31.5874L0.721795 31.554L0.721322 31.5206L0.720847 31.4871L0.720372 31.4535L0.719897 31.4199L0.71942 31.3862L0.718943 31.3525L0.718465 31.3187L0.717986 31.2849L0.717507 31.251L0.717027 31.2171L0.716547 31.1832L0.716065 31.1492L0.715584 31.1151L0.715101 31.081L0.714618 31.0469L0.714134 31.0127L0.71365 30.9785L0.713165 30.9442L0.71268 30.9099L0.712194 30.8756L0.711707 30.8412L0.71122 30.8068L0.710733 30.7724L0.710245 30.7379L0.709756 30.7034L0.709267 30.6688L0.708778 30.6342L0.708288 30.5996L0.707798 30.565L0.707307 30.5303L0.706816 30.4956L0.706324 30.4609L0.705832 30.4261L0.70534 30.3913L0.704848 30.3565L0.704355 30.3217L0.703861 30.2868L0.703368 30.252L0.702874 30.2171L0.70238 30.1821L0.701885 30.1472L0.70139 30.1122L0.700895 30.0773L0.7004 30.0423L0.699905 30.0073L0.699409 29.9722L0.698913 29.9372L0.698417 29.9021L0.697921 29.8671L0.697424 29.832L0.696927 29.7969L0.696431 29.7618L0.695934 29.7267L0.695437 29.6916L0.69494 29.6564L0.694442 29.6213L0.693945 29.5862L0.693448 29.551L0.69295 29.5159L0.692453 29.4807L0.691956 29.4456L0.691458 29.4104L0.690961 29.3753L0.690463 29.3401L0.689966 29.305L0.689468 29.2698L0.688971 29.2347L0.688473 29.1995L0.687976 29.1644L0.687479 29.1293L0.686982 29.0942L0.686485 29.059L0.685988 29.0239L0.685491 28.9888L0.684995 28.9537L0.684498 28.9187L0.684002 28.8836L0.683506 28.8486L0.68301 28.8135L0.682515 28.7785L0.682019 28.7435L0.681524 28.7085L0.681029 28.6735L0.680534 28.6386L0.68004 28.6036L0.679546 28.5687L0.679052 28.5338L0.678559 28.499L0.678065 28.4641L0.677572 28.4293L0.67708 28.3945L0.676588 28.3597L0.676096 28.325L0.675605 28.2902L0.675114 28.2556L0.674623 28.2209L0.674133 28.1863L0.673643 28.1516L0.673154 28.1171L0.672665 28.0825L0.672177 28.048L0.671689 28.0136L0.671201 27.9791L0.670715 27.9447L0.670228 27.9104L0.669743 27.876L0.669257 27.8417L0.668773 27.8075L0.668288 27.7733L0.667805 27.7391L0.667322 27.705L0.66684 27.6709L0.666358 27.6369L0.665877 27.6029L0.665397 27.569L0.664917 27.5351L0.664438 27.5012L0.663959 27.4674L0.663482 27.4336L0.663005 27.3999L0.662528 27.3663L0.662053 27.3327L0.661578 27.2992L0.661104 27.2657L0.660631 27.2322L0.660159 27.1988L0.659687 27.1655L0.659216 27.1322L0.658746 27.099L0.658277 27.0659L0.657809 27.0328L0.657341 26.9998L0.656875 26.9668L0.656409 26.9339L0.655944 26.9011L0.65548 26.8683L0.655017 26.8356L0.654555 26.8029L0.654094 26.7703L0.653634 26.7378L0.653175 26.7054L0.652717 26.673L0.65226 26.6407L0.651804 26.6085L0.651349 26.5763L0.650895 26.5443L0.650442 26.5123L0.64999 26.4803L0.649539 26.4485L0.649089 26.4167L0.64864 26.385L0.648193 26.3534L0.647747 26.3218L0.647301 26.2904L0.646857 26.259L0.646414 26.2277L0.645972 26.1965L0.645532 26.1653L0.645092 26.1343L0.644654 26.1033L0.644217 26.0724L0.643782 26.0417L0.643347 26.011L0.642914 25.9803L0.642482 25.9498L0.642051 25.9194L0.641622 25.8891L0.641194 25.8588L0.640767 25.8287L0.640342 25.7986L0.639918 25.7687L0.639495 25.7388L0.639074 25.709L0.638654 25.6794L0.638236 25.6498L0.637819 25.6203L0.637403 25.591L0.636989 25.5617L0.636576 25.5325L0.636165 25.5035L0.635755 25.4745L0.635347 25.4457L0.63494 25.4169L0.634535 25.3883L0.634131 25.3598L0.633729 25.3314L0.633328 25.3031L0.632929 25.2749L0.632532 25.2468L0.632136 25.2188L0.631742 25.1909L0.631349 25.1632L0.630958 25.1356L0.630569 25.108L0.630181 25.0806L0.629795 25.0534L0.62941 25.0262L0.629028 24.9992L0.628647 24.9722L0.628267 24.9454L0.62789 24.9188L0.627514 24.8922L0.62714 24.8658L0.626768 24.8395L0.626397 24.8133L0.626029 24.7872L0.625662 24.7613L0.625297 24.7355L0.624933 24.7099L0.624572 24.6843L0.624212 24.6589L0.623855 24.6336L0.623499 24.6085L0.623145 24.5835L0.622793 24.5586L0.622443 24.5339L0.622095 24.5093L0.621748 24.4848L0.621404 24.4605L0.621062 24.4363L0.620722 24.4123L0.620383 24.3884L0.620047 24.3646L0.619713 24.341L0.61938 24.3175L0.61905 24.2942L0.618722 24.271L0.618396 24.2479L0.618072 24.225L0.61775 24.2023L0.61743 24.1797L0.617113 24.1573L0.616797 24.135L0.616484 24.1128L0.616172 24.0908L0.615863 24.069L0.615556 24.0473L0.615252 24.0258L0.614949 24.0044L0.614649 23.9832L0.614351 23.9621L0.614055 23.9412L0.613762 23.9205L0.61347 23.8999L0.613181 23.8795L0.612895 23.8592L0.61261 23.8391L0.612328 23.8192L0.612049 23.7994L0.611771 23.7798L0.611496 23.7604L0.611224 23.7411L0.610953 23.722L0.610685 23.7031L0.61042 23.6844L0.610157 23.6658L0.609896 23.6474L0.609638 23.6291L0.609382 23.611L0.609129 23.5932L0.608878 23.5754L0.60863 23.5579L0.608385 23.5405L0.608141 23.5233L0.607901 23.5063L0.607663 23.4895L0.607427 23.4729L0.607194 23.4564L0.606964 23.4401L0.606736 23.424L0.606511 23.4081L0.606288 23.3924L0.606068 23.3768L0.605851 23.3615L0.605636 23.3463L0.605424 23.3314L0.605215 23.3166L0.605008 23.302L0.604804 23.2876L0.604603 23.2733L0.604405 23.2593L0.604209 23.2455L0.604016 23.2319L0.603826 23.2184L0.603639 23.2052C0.60184 23.0781 0.64874 22.9575 0.740939 22.8601L5.29315 18.0506C5.60175 17.7246 6.14946 17.9373 6.15581 18.3857L6.30156 28.6844C6.3035 28.8212 6.25104 28.9503 6.1554 29.046C5.51532 29.6868 3.95568 31.2535 2.55591 32.7029Z" fill="#D70D1D" stroke="#FD2E32"/>
<path d="M18.2336 16.354L6.83175 16.2673L1.27539 22.1376L12.8152 21.9471L18.2336 16.354Z" fill="#D70D1D" stroke="#FD2E32"/>
<rect x="-0.492856" y="0.508207" width="12.2575" height="11.9353" transform="matrix(0.014151 0.9999 -0.999864 0.0165136 13.0517 23.4379)" fill="#D70D1D" stroke="#FD2E32"/>
<rect x="-0.503157" y="-0.483032" width="12.3154" height="12.1262" transform="matrix(-0.00688823 -0.999976 -0.999425 0.0339128 28.3738 34.2197)" fill="#FFDE00" stroke="#101010"/>
<rect x="-0.503157" y="-0.483032" width="12.3154" height="12.1262" transform="matrix(-0.00688823 -0.999976 -0.999425 0.0339128 34.9639 27.2587)" fill="#FFDE00" stroke="#FFEC6B"/>
<path d="M29.6461 21.6389L29.7312 33.9961L35.3289 28.0833L35.2446 15.8592L29.6461 21.6389Z" fill="#FFDE00" stroke="#FFEC6B"/>
<path d="M18.5828 32.3296C17.8894 33.0558 17.2308 33.7568 16.7351 34.3076L16.735 34.2966L16.7349 34.2736L16.7347 34.2504L16.7345 34.227L16.7344 34.2035L16.7342 34.1799L16.734 34.1561L16.7339 34.1322L16.7337 34.1081L16.7335 34.0838L16.7334 34.0595L16.7332 34.0349L16.733 34.0103L16.7329 33.9855L16.7327 33.9605L16.7325 33.9354L16.7324 33.9102L16.7322 33.8848L16.732 33.8593L16.7318 33.8337L16.7316 33.8079L16.7315 33.782L16.7313 33.756L16.7311 33.7298L16.7309 33.7035L16.7307 33.6771L16.7306 33.6505L16.7304 33.6239L16.7302 33.597L16.73 33.5701L16.7298 33.543L16.7296 33.5158L16.7294 33.4885L16.7293 33.4611L16.7291 33.4335L16.7289 33.4058L16.7287 33.378L16.7285 33.3501L16.7283 33.3221L16.7281 33.2939L16.7279 33.2656L16.7277 33.2372L16.7275 33.2087L16.7273 33.1801L16.7271 33.1514L16.7269 33.1225L16.7267 33.0936L16.7265 33.0645L16.7263 33.0353L16.7261 33.006L16.7259 32.9766L16.7257 32.9471L16.7255 32.9175L16.7253 32.8878L16.7251 32.858L16.7249 32.8281L16.7247 32.798L16.7245 32.7679L16.7243 32.7377L16.7241 32.7074L16.7239 32.6769L16.7236 32.6464L16.7234 32.6158L16.7232 32.5851L16.723 32.5543L16.7228 32.5234L16.7226 32.4924L16.7224 32.4613L16.7222 32.4301L16.7219 32.3988L16.7217 32.3675L16.7215 32.336L16.7213 32.3045L16.7211 32.2729L16.7209 32.2411L16.7206 32.2093L16.7204 32.1775L16.7202 32.1455L16.72 32.1135L16.7198 32.0813L16.7195 32.0491L16.7193 32.0168L16.7191 31.9845L16.7189 31.952L16.7186 31.9195L16.7184 31.8869L16.7182 31.8542L16.718 31.8215L16.7177 31.7887L16.7175 31.7558L16.7173 31.7228L16.7171 31.6898L16.7168 31.6567L16.7166 31.6235L16.7164 31.5902L16.7161 31.5569L16.7159 31.5236L16.7157 31.4901L16.7155 31.4566L16.7152 31.423L16.715 31.3894L16.7148 31.3557L16.7145 31.322L16.7143 31.2882L16.7141 31.2543L16.7138 31.2204L16.7136 31.1864L16.7134 31.1523L16.7131 31.1182L16.7129 31.0841L16.7126 31.0499L16.7124 31.0156L16.7122 30.9813L16.7119 30.9469L16.7117 30.9125L16.7115 30.8781L16.7112 30.8436L16.711 30.809L16.7108 30.7744L16.7105 30.7398L16.7103 30.7051L16.71 30.6703L16.7098 30.6356L16.7096 30.6007L16.7093 30.5659L16.7091 30.531L16.7088 30.496L16.7086 30.4611L16.7084 30.426L16.7081 30.391L16.7079 30.3559L16.7076 30.3208L16.7074 30.2856L16.7071 30.2505L16.7069 30.2152L16.7067 30.18L16.7064 30.1447L16.7062 30.1094L16.7059 30.0741L16.7057 30.0387L16.7054 30.0033L16.7052 29.9679L16.705 29.9325L16.7047 29.897L16.7045 29.8615L16.7042 29.826L16.704 29.7905L16.7037 29.7549L16.7035 29.7194L16.7032 29.6838L16.703 29.6482L16.7027 29.6125L16.7025 29.5769L16.7023 29.5413L16.702 29.5056L16.7018 29.4699L16.7015 29.4342L16.7013 29.3985L16.701 29.3628L16.7008 29.3271L16.7005 29.2914L16.7003 29.2557L16.7 29.2199L16.6998 29.1842L16.6996 29.1484L16.6993 29.1127L16.6991 29.0769L16.6988 29.0412L16.6986 29.0054L16.6983 28.9696L16.6981 28.9339L16.6978 28.8981L16.6976 28.8624L16.6973 28.8266L16.6971 28.7909L16.6968 28.7551L16.6966 28.7194L16.6964 28.6837L16.6961 28.648L16.6959 28.6122L16.6956 28.5765L16.6954 28.5409L16.6951 28.5052L16.6949 28.4695L16.6946 28.4339L16.6944 28.3982L16.6941 28.3626L16.6939 28.327L16.6936 28.2914L16.6934 28.2558L16.6932 28.2203L16.6929 28.1848L16.6927 28.1493L16.6924 28.1138L16.6922 28.0783L16.6919 28.0429L16.6917 28.0074L16.6914 27.972L16.6912 27.9367L16.691 27.9013L16.6907 27.866L16.6905 27.8307L16.6902 27.7955L16.69 27.7603L16.6897 27.7251L16.6895 27.6899L16.6893 27.6548L16.689 27.6197L16.6888 27.5847L16.6885 27.5496L16.6883 27.5147L16.6881 27.4797L16.6878 27.4448L16.6876 27.4099L16.6873 27.3751L16.6871 27.3403L16.6869 27.3056L16.6866 27.2709L16.6864 27.2362L16.6861 27.2016L16.6859 27.1671L16.6857 27.1326L16.6854 27.0981L16.6852 27.0637L16.685 27.0293L16.6847 26.995L16.6845 26.9607L16.6842 26.9265L16.684 26.8923L16.6838 26.8582L16.6835 26.8242L16.6833 26.7902L16.6831 26.7563L16.6828 26.7224L16.6826 26.6886L16.6824 26.6548L16.6821 26.6211L16.6819 26.5875L16.6817 26.5539L16.6814 26.5204L16.6812 26.4869L16.681 26.4535L16.6808 26.4202L16.6805 26.387L16.6803 26.3538L16.6801 26.3207L16.6798 26.2876L16.6796 26.2546L16.6794 26.2217L16.6792 26.1889L16.6789 26.1561L16.6787 26.1235L16.6785 26.0909L16.6783 26.0583L16.678 26.0259L16.6778 25.9935L16.6776 25.9612L16.6774 25.929L16.6772 25.8968L16.6769 25.8648L16.6767 25.8328L16.6765 25.8009L16.6763 25.7691L16.6761 25.7374L16.6758 25.7057L16.6756 25.6742L16.6754 25.6427L16.6752 25.6114L16.675 25.5801L16.6748 25.5489L16.6745 25.5178L16.6743 25.4868L16.6741 25.4558L16.6739 25.425L16.6737 25.3943L16.6735 25.3637L16.6733 25.3331L16.6731 25.3027L16.6729 25.2724L16.6726 25.2421L16.6724 25.212L16.6722 25.1819L16.672 25.152L16.6718 25.1222L16.6716 25.0924L16.6714 25.0628L16.6712 25.0333L16.671 25.0039L16.6708 24.9746L16.6706 24.9454L16.6704 24.9163L16.6702 24.8873L16.67 24.8585L16.6698 24.8297L16.6696 24.8011L16.6694 24.7726L16.6692 24.7441L16.669 24.7159L16.6688 24.6877L16.6686 24.6596L16.6684 24.6317L16.6682 24.6039L16.6681 24.5762L16.6679 24.5486L16.6677 24.5211L16.6675 24.4938L16.6673 24.4666L16.6671 24.4395L16.6669 24.4125L16.6667 24.3857L16.6666 24.359L16.6664 24.3324L16.6662 24.306L16.666 24.2796L16.6658 24.2535L16.6657 24.2274L16.6655 24.2015L16.6653 24.1757L16.6651 24.15L16.6649 24.1245L16.6648 24.0992L16.6646 24.0739L16.6644 24.0488L16.6643 24.0238L16.6641 23.999L16.6639 23.9743L16.6637 23.9498L16.6636 23.9254L16.6634 23.9011L16.6632 23.877L16.6631 23.8531L16.6629 23.8292L16.6627 23.8056L16.6626 23.7821L16.6624 23.7587L16.6623 23.7355L16.6621 23.7124L16.6619 23.6895L16.6618 23.6667L16.6616 23.6441L16.6615 23.6216L16.6613 23.5993L16.6612 23.5772L16.661 23.5552L16.6609 23.5334L16.6607 23.5117L16.6606 23.4902L16.6604 23.4688L16.6603 23.4477L16.6601 23.4266L16.66 23.4058L16.6599 23.3851L16.6597 23.3645L16.6596 23.3442L16.6594 23.324L16.6593 23.304L16.6592 23.2841L16.659 23.2644L16.6589 23.2449L16.6588 23.2255L16.6586 23.2064L16.6585 23.1874L16.6584 23.1685L16.6582 23.1499L16.6581 23.1314L16.658 23.1131L16.6579 23.095L16.6577 23.0771L16.6576 23.0593L16.6575 23.0417L16.6574 23.0243L16.6572 23.0071L16.6571 22.9901L16.657 22.9733L16.6569 22.9566L16.6568 22.9401L16.6567 22.9238L16.6566 22.9077L16.6565 22.8918L16.6563 22.8761L16.6562 22.8606L16.6561 22.8453L16.656 22.8301L16.6559 22.8152L16.6558 22.8004L16.6557 22.7859L16.6556 22.7715L16.6555 22.7573L16.6554 22.7434L16.6553 22.7296L16.6552 22.716L16.6552 22.7027C16.6543 22.5756 16.702 22.4539 16.7946 22.355L21.4761 17.3546C21.7868 17.0228 22.333 17.2259 22.3361 17.6745L22.4085 28.1853C22.4094 28.3217 22.356 28.4521 22.2597 28.5496C21.6095 29.2085 20.0151 30.8297 18.5828 32.3296Z" fill="#FFDE00" stroke="#FFEC6B"/>
<path d="M34.5989 15.4892L23.0145 15.6023L17.3204 21.6843L29.0469 21.2864L34.5989 15.4892Z" fill="#FFEC6B" stroke="#FFEC6B"/>
<rect x="-0.496268" y="0.516945" width="12.4721" height="12.1262" transform="matrix(0.00688823 0.999976 -0.999425 0.0339128 29.2941 22.7144)" fill="#FFDE00" stroke="#FFEC6B"/>
<rect x="-0.503157" y="-0.483032" width="12.7522" height="11.8769" transform="matrix(-0.00688823 -0.999976 -0.999425 0.0339128 21.4297 20.2021)" fill="#1FA68D" stroke="#101010"/>
<rect x="-0.503157" y="-0.483032" width="12.7522" height="11.8769" transform="matrix(-0.00688823 -0.999976 -0.999425 0.0339128 27.8922 13.0243)" fill="#1FA68D" stroke="#2BD1B2"/>
<path d="M22.7379 7.20055L22.8258 19.9714L28.2963 13.8955L28.2093 1.26161L22.7379 7.20055Z" fill="#1FA68D" stroke="#2BD1B2"/>
<path d="M11.8395 18.2065C11.1664 18.9476 10.526 19.664 10.0399 20.2309L10.0398 20.2162L10.0396 20.1922L10.0395 20.1681L10.0393 20.1438L10.0391 20.1193L10.039 20.0948L10.0388 20.07L10.0386 20.0451L10.0384 20.0201L10.0383 19.9949L10.0381 19.9695L10.0379 19.944L10.0377 19.9184L10.0376 19.8926L10.0374 19.8667L10.0372 19.8406L10.037 19.8144L10.0368 19.788L10.0367 19.7615L10.0365 19.7348L10.0363 19.708L10.0361 19.6811L10.0359 19.6541L10.0357 19.6268L10.0355 19.5995L10.0354 19.572L10.0352 19.5444L10.035 19.5167L10.0348 19.4888L10.0346 19.4608L10.0344 19.4327L10.0342 19.4044L10.034 19.376L10.0338 19.3475L10.0336 19.3188L10.0334 19.2901L10.0332 19.2612L10.033 19.2321L10.0328 19.203L10.0326 19.1737L10.0324 19.1443L10.0322 19.1148L10.032 19.0852L10.0318 19.0555L10.0316 19.0256L10.0314 18.9956L10.0312 18.9655L10.031 18.9353L10.0308 18.905L10.0306 18.8746L10.0303 18.844L10.0301 18.8133L10.0299 18.7826L10.0297 18.7517L10.0295 18.7207L10.0293 18.6896L10.0291 18.6584L10.0289 18.6271L10.0286 18.5957L10.0284 18.5642L10.0282 18.5326L10.028 18.5009L10.0278 18.4691L10.0275 18.4372L10.0273 18.4052L10.0271 18.3731L10.0269 18.3409L10.0267 18.3086L10.0264 18.2762L10.0262 18.2437L10.026 18.2111L10.0258 18.1784L10.0255 18.1457L10.0253 18.1128L10.0251 18.0799L10.0249 18.0468L10.0246 18.0137L10.0244 17.9805L10.0242 17.9472L10.0239 17.9139L10.0237 17.8804L10.0235 17.8469L10.0232 17.8133L10.023 17.7796L10.0228 17.7458L10.0225 17.7119L10.0223 17.678L10.0221 17.644L10.0218 17.6099L10.0216 17.5757L10.0214 17.5415L10.0211 17.5072L10.0209 17.4728L10.0207 17.4384L10.0204 17.4039L10.0202 17.3693L10.0199 17.3346L10.0197 17.2999L10.0195 17.2651L10.0192 17.2302L10.019 17.1953L10.0187 17.1603L10.0185 17.1253L10.0183 17.0902L10.018 17.055L10.0178 17.0198L10.0175 16.9845L10.0173 16.9492L10.017 16.9138L10.0168 16.8783L10.0166 16.8428L10.0163 16.8072L10.0161 16.7716L10.0158 16.736L10.0156 16.7002L10.0153 16.6645L10.0151 16.6287L10.0148 16.5928L10.0146 16.5569L10.0143 16.5209L10.0141 16.4849L10.0138 16.4489L10.0136 16.4128L10.0133 16.3766L10.0131 16.3404L10.0129 16.3042L10.0126 16.268L10.0124 16.2317L10.0121 16.1953L10.0119 16.159L10.0116 16.1226L10.0113 16.0861L10.0111 16.0496L10.0108 16.0131L10.0106 15.9766L10.0103 15.94L10.0101 15.9034L10.0098 15.8668L10.0096 15.8301L10.0093 15.7934L10.0091 15.7567L10.0088 15.72L10.0086 15.6832L10.0083 15.6464L10.0081 15.6096L10.0078 15.5728L10.0076 15.5359L10.0073 15.499L10.0071 15.4622L10.0068 15.4252L10.0065 15.3883L10.0063 15.3514L10.006 15.3144L10.0058 15.2774L10.0055 15.2405L10.0053 15.2035L10.005 15.1664L10.0048 15.1294L10.0045 15.0924L10.0042 15.0554L10.004 15.0183L10.0037 14.9813L10.0035 14.9442L10.0032 14.9071L10.003 14.8701L10.0027 14.833L10.0025 14.7959L10.0022 14.7589L10.002 14.7218L10.0017 14.6847L10.0014 14.6477L10.0012 14.6106L10.0009 14.5735L10.0007 14.5365L10.0004 14.4994L10.0002 14.4624L9.99991 14.4253L9.99965 14.3883L9.9994 14.3513L9.99914 14.3143L9.99889 14.2773L9.99863 14.2403L9.99838 14.2033L9.99812 14.1664L9.99787 14.1294L9.99762 14.0925L9.99736 14.0556L9.99711 14.0187L9.99685 13.9818L9.9966 13.945L9.99635 13.9081L9.99609 13.8713L9.99584 13.8345L9.99559 13.7978L9.99533 13.761L9.99508 13.7243L9.99483 13.6876L9.99457 13.651L9.99432 13.6143L9.99407 13.5777L9.99382 13.5412L9.99357 13.5046L9.99331 13.4681L9.99306 13.4317L9.99281 13.3952L9.99256 13.3588L9.99231 13.3224L9.99206 13.2861L9.99181 13.2498L9.99156 13.2135L9.99131 13.1773L9.99106 13.1412L9.99081 13.105L9.99056 13.0689L9.99032 13.0329L9.99007 12.9969L9.98982 12.9609L9.98957 12.925L9.98933 12.8891L9.98908 12.8533L9.98883 12.8176L9.98859 12.7818L9.98834 12.7462L9.9881 12.7106L9.98785 12.675L9.98761 12.6395L9.98736 12.604L9.98712 12.5686L9.98688 12.5333L9.98663 12.498L9.98639 12.4628L9.98615 12.4276L9.98591 12.3925L9.98566 12.3575L9.98542 12.3225L9.98518 12.2876L9.98494 12.2527L9.9847 12.218L9.98446 12.1832L9.98422 12.1486L9.98399 12.114L9.98375 12.0795L9.98351 12.045L9.98327 12.0107L9.98304 11.9764L9.9828 11.9421L9.98257 11.908L9.98233 11.8739L9.9821 11.8399L9.98186 11.8059L9.98163 11.7721L9.9814 11.7383L9.98117 11.7046L9.98094 11.671L9.9807 11.6375L9.98047 11.604L9.98024 11.5707L9.98001 11.5374L9.97979 11.5042L9.97956 11.4711L9.97933 11.438L9.9791 11.4051L9.97888 11.3723L9.97865 11.3395L9.97843 11.3068L9.9782 11.2743L9.97798 11.2418L9.97776 11.2094L9.97753 11.1771L9.97731 11.1449L9.97709 11.1128L9.97687 11.0808L9.97665 11.0489L9.97643 11.0171L9.97621 10.9854L9.97599 10.9538L9.97578 10.9223L9.97556 10.8909L9.97535 10.8596L9.97513 10.8284L9.97492 10.7973L9.9747 10.7663L9.97449 10.7354L9.97428 10.7047L9.97407 10.674L9.97386 10.6435L9.97365 10.613L9.97344 10.5827L9.97323 10.5525L9.97302 10.5224L9.97282 10.4925L9.97261 10.4626L9.97241 10.4329L9.9722 10.4032L9.972 10.3737L9.9718 10.3444L9.9716 10.3151L9.97139 10.2859L9.97119 10.2569L9.971 10.228L9.9708 10.1993L9.9706 10.1706L9.9704 10.1421L9.97021 10.1137L9.97001 10.0855L9.96982 10.0573L9.96963 10.0293L9.96943 10.0015L9.96924 9.97373L9.96905 9.94612L9.96886 9.91865L9.96868 9.89132L9.96849 9.86412L9.9683 9.83706L9.96812 9.81014L9.96793 9.78336L9.96775 9.75672L9.96757 9.73022L9.96738 9.70386L9.9672 9.67764L9.96702 9.65156L9.96685 9.62564L9.96667 9.59985L9.96649 9.57422L9.96632 9.54873L9.96614 9.52339L9.96597 9.4982L9.9658 9.47315L9.96562 9.44826L9.96545 9.42353L9.96528 9.39894L9.96512 9.37451L9.96495 9.35024L9.96478 9.32612L9.96462 9.30216L9.96445 9.27835L9.96429 9.25471L9.96413 9.23122L9.96397 9.2079L9.96381 9.18474L9.96365 9.16174L9.96349 9.1389L9.96334 9.11623L9.96318 9.09372L9.96303 9.07138L9.96288 9.04921L9.96272 9.02721L9.96257 9.00537L9.96242 8.98371L9.96228 8.96221L9.96213 8.94089L9.96198 8.91974L9.96184 8.89877L9.9617 8.87797L9.96155 8.85735L9.96141 8.8369L9.96127 8.81663L9.96113 8.79654L9.961 8.77663L9.96086 8.7569L9.96073 8.73735L9.96059 8.71799L9.96046 8.6988L9.96033 8.6798L9.9602 8.66099L9.96007 8.64237L9.95995 8.62393L9.95982 8.60568L9.9597 8.58761L9.95957 8.56974L9.95945 8.55206L9.95933 8.53457L9.95921 8.51728L9.95909 8.50017L9.95898 8.48327L9.95886 8.46656L9.95875 8.45004L9.95864 8.43373L9.95852 8.41761L9.95841 8.40169L9.95831 8.38597L9.9582 8.37045L9.95809 8.35514L9.95799 8.34003L9.95789 8.32512L9.95779 8.31042L9.95769 8.29592L9.95759 8.28163L9.95749 8.26755L9.9574 8.25368L9.9573 8.24002L9.95721 8.22657C9.95636 8.1029 10.0015 7.98375 10.0879 7.88669L14.641 2.77286C14.9475 2.42864 15.5067 2.62832 15.5098 3.08312L15.5847 13.9549C15.5856 14.0861 15.5352 14.2137 15.4439 14.3109C14.8155 14.9803 13.2492 16.6546 11.8395 18.2065Z" fill="#1FA68D" stroke="#2BD1B2"/>
<path d="M27.4916 0.904887L16.1195 1.00142L10.5058 7.3064L22.0168 6.91581L27.4916 0.904887Z" fill="#2BD1B2" stroke="#2BD1B2"/>
<rect x="-0.496268" y="0.516945" width="12.914" height="11.8769" transform="matrix(0.00688823 0.999976 -0.999425 0.0339128 22.347 8.25544)" fill="#1FA68D" stroke="#2BD1B2"/>
<path d="M10.4015 18.9434L10.4086 17.3855L20.9326 17.2427L20.9254 18.8007L10.4015 18.9434ZM10.4193 15.0486L10.4265 13.4906L20.9505 13.3478L20.9433 14.9058L10.4193 15.0486ZM10.4372 11.1537L10.4443 9.5957L20.9683 9.45294L20.9612 11.0109L10.4372 11.1537Z" fill="white" fill-opacity="0.83"/>
</svg>
